<svg id="surface1" xmlns="http://www.w3.org/2000/svg" width="465.793" height="512" viewBox="0 0 465.793 512">
  <path id="Path_305" data-name="Path 305" d="M348.945,221.641V124.746a11.216,11.216,0,0,0-3.094-7.363L237.219,3.309A10.828,10.828,0,0,0,229.43,0H57.2C25.4,0,0,25.93,0,57.73V383.414a57.021,57.021,0,0,0,57.2,57.3H193.148A146.748,146.748,0,0,0,318.852,512c80.887,0,146.941-65.734,146.941-146.727C465.9,294.523,415.105,235.406,348.945,221.641ZM240.1,37.457l72.883,76.723H265.711A25.774,25.774,0,0,1,240.1,88.465ZM57.2,419.375a35.75,35.75,0,0,1-35.852-35.961V57.73c0-20.062,15.9-36.387,35.852-36.387H218.758V88.465a47.046,47.046,0,0,0,46.953,47.059H327.6v83.34c-3.2-.105-5.762-.426-8.535-.426a148.9,148.9,0,0,0-97.32,36.711H86.223a10.67,10.67,0,1,0,0,21.34H201.9a169.78,169.78,0,0,0-18.781,33.082H86.223a10.672,10.672,0,0,0,0,21.344H176.18a143.644,143.644,0,0,0-4.055,34.359c0,19.207,3.734,38.2,10.457,54.211H57.2Zm261.766,71.391A125.387,125.387,0,1,1,444.344,365.379,125.516,125.516,0,0,1,318.961,490.766Zm0,0"/>
  <path id="Path_306" data-name="Path 306" d="M86.223,223.027h108.1a10.672,10.672,0,0,0,0-21.344H86.223a10.672,10.672,0,0,0,0,21.344Zm0,0"/>
  <path id="Path_307" data-name="Path 307" d="M354.922,362.816H324.4V319.172a10.672,10.672,0,0,0-21.344,0v54.316a10.611,10.611,0,0,0,10.563,10.672h41.406a10.672,10.672,0,1,0-.105-21.344Zm0,0"/>
  <path id="Path_308" data-name="Path 308" d="M318.746,256.961A108.738,108.738,0,1,0,427.484,365.7,108.843,108.843,0,0,0,318.746,256.961Zm0,196.133A87.395,87.395,0,1,1,406.141,365.7,87.436,87.436,0,0,1,318.746,453.094Zm0,0"/>
</svg>
